<svg width="312" height="312" xmlns="http://www.w3.org/2000/svg" xmlns:xlink="http://www.w3.org/1999/xlink" overflow="hidden"><defs><clipPath id="clip0"><path d="M2 355 314 355 314 667 2 667Z" fill-rule="evenodd" clip-rule="evenodd"/></clipPath></defs><g clip-path="url(#clip0)" transform="translate(-2 -355)"><path d="M7 410.334C7 382.535 29.5354 360 57.3343 360L258.666 360C286.465 360 309 382.535 309 410.334L309 611.666C309 639.465 286.465 662 258.666 662L57.3343 662C29.5354 662 7 639.465 7 611.666Z" stroke="#0D0D0D" stroke-width="8" stroke-miterlimit="8" fill="none" fill-rule="evenodd"/><path d="M177 454 215 454 215 568 177 568ZM101 454 139 454 139 568 101 568Z" fill-rule="evenodd"/></g></svg>