<svg width="312" height="313" xmlns="http://www.w3.org/2000/svg" xmlns:xlink="http://www.w3.org/1999/xlink" overflow="hidden"><defs><clipPath id="clip0"><path d="M705 231 1017 231 1017 544 705 544Z" fill-rule="evenodd" clip-rule="evenodd"/></clipPath><clipPath id="clip1"><path d="M705 231 1016 231 1016 543 705 543Z" fill-rule="evenodd" clip-rule="evenodd"/></clipPath><clipPath id="clip2"><path d="M705 231 1016 231 1016 543 705 543Z" fill-rule="evenodd" clip-rule="evenodd"/></clipPath><clipPath id="clip3"><path d="M705 231 1016 231 1016 543 705 543Z" fill-rule="evenodd" clip-rule="evenodd"/></clipPath><clipPath id="clip4"><path d="M705 231 1016 231 1016 543 705 543Z" fill-rule="evenodd" clip-rule="evenodd"/></clipPath><clipPath id="clip5"><path d="M749 278 973 278 973 476 749 476Z" fill-rule="evenodd" clip-rule="evenodd"/></clipPath><clipPath id="clip6"><path d="M749 278 973 278 973 476 749 476Z" fill-rule="evenodd" clip-rule="evenodd"/></clipPath><clipPath id="clip7"><path d="M749 265 973 265 973 490 749 490Z" fill-rule="evenodd" clip-rule="evenodd"/></clipPath></defs><g clip-path="url(#clip0)" transform="translate(-705 -231)"><g clip-path="url(#clip1)"><g clip-path="url(#clip2)"><g clip-path="url(#clip3)"><g clip-path="url(#clip4)"><path d="M709 286.334C709 258.535 731.535 236 759.334 236L960.666 236C988.465 236 1011 258.535 1011 286.334L1011 487.666C1011 515.465 988.465 538 960.666 538L759.334 538C731.535 538 709 515.465 709 487.666Z" stroke="#0D0D0D" stroke-width="8" stroke-miterlimit="8" fill="#7F7F7F" fill-rule="evenodd"/><path d="M812 330 925 387 812 444Z" fill="#7F7F7F" fill-rule="evenodd"/></g></g></g></g><g clip-path="url(#clip5)"><g clip-path="url(#clip6)"><g clip-path="url(#clip7)"><path d="M98.0123 26.25 89.2623 13.125 0 13.125 0 210.875 224 210.875 224 26.25ZM210.875 197.75 13.125 197.75 13.125 26.25 82.2377 26.25 108.488 65.625 210.875 65.625ZM210.875 52.5 115.512 52.5 106.762 39.375 210.875 39.375Z" fill="#FFFFFF" transform="matrix(1 0 -0 1.00203 749 265.074)"/></g></g></g><path d="M835 358 896 388.924 835 420Z" fill="#FFFFFF" fill-rule="evenodd"/></g></svg>