<svg width="312" height="311" xmlns="http://www.w3.org/2000/svg" xmlns:xlink="http://www.w3.org/1999/xlink" overflow="hidden"><defs><clipPath id="clip0"><path d="M1110-402 1422-402 1422-91 1110-91Z" fill-rule="evenodd" clip-rule="evenodd"/></clipPath></defs><g clip-path="url(#clip0)" transform="translate(-1110 402)"><path d="M1115-347.666C1115-375.465 1137.54-398 1165.33-398L1366.67-398C1394.46-398 1417-375.465 1417-347.666L1417-145.334C1417-117.535 1394.46-95 1366.67-95L1165.33-95C1137.54-95 1115-117.535 1115-145.334Z" stroke="#0D0D0D" stroke-width="8" stroke-miterlimit="8" fill="#7F7F7F" fill-rule="evenodd"/><path d="M1284.33-303 1322-303 1322-190 1284.33-190ZM1209-303 1246.67-303 1246.67-190 1209-190Z" fill="#FFFFFF" fill-rule="evenodd"/></g></svg>