<svg width="312" height="313" xmlns="http://www.w3.org/2000/svg" xmlns:xlink="http://www.w3.org/1999/xlink" overflow="hidden"><defs><clipPath id="clip0"><path d="M705 231 1017 231 1017 544 705 544Z" fill-rule="evenodd" clip-rule="evenodd"/></clipPath><clipPath id="clip1"><path d="M740 280 982 280 982 494 740 494Z" fill-rule="evenodd" clip-rule="evenodd"/></clipPath><clipPath id="clip2"><path d="M740 280 982 280 982 494 740 494Z" fill-rule="evenodd" clip-rule="evenodd"/></clipPath><clipPath id="clip3"><path d="M740 266 982 266 982 509 740 509Z" fill-rule="evenodd" clip-rule="evenodd"/></clipPath><clipPath id="clip4"><path d="M784 320 938 320 938 480 784 480Z" fill-rule="evenodd" clip-rule="evenodd"/></clipPath><clipPath id="clip5"><path d="M784 320 938 320 938 480 784 480Z" fill-rule="evenodd" clip-rule="evenodd"/></clipPath><clipPath id="clip6"><path d="M769 308 953 308 953 493 769 493Z" fill-rule="evenodd" clip-rule="evenodd"/></clipPath><clipPath id="clip7"><path d="M769 308 953 308 953 493 769 493Z" fill-rule="evenodd" clip-rule="evenodd"/></clipPath><clipPath id="clip8"><path d="M705 231 1016 231 1016 543 705 543Z" fill-rule="evenodd" clip-rule="evenodd"/></clipPath><clipPath id="clip9"><path d="M705 231 1016 231 1016 543 705 543Z" fill-rule="evenodd" clip-rule="evenodd"/></clipPath><clipPath id="clip10"><path d="M705 231 1016 231 1016 543 705 543Z" fill-rule="evenodd" clip-rule="evenodd"/></clipPath><clipPath id="clip11"><path d="M705 231 1016 231 1016 543 705 543Z" fill-rule="evenodd" clip-rule="evenodd"/></clipPath></defs><g clip-path="url(#clip0)" transform="translate(-705 -231)"><g clip-path="url(#clip1)"><g clip-path="url(#clip2)"><g clip-path="url(#clip3)"><path d="M105.888 28.3594 96.4351 14.1797 0 14.1797 0 227.82 242 227.82 242 28.3594ZM227.82 213.641 14.1797 213.641 14.1797 28.3594 88.8461 28.3594 117.206 70.8984 227.82 70.8984ZM227.82 56.7188 124.794 56.7188 115.341 42.5391 227.82 42.5391Z" transform="matrix(1 0 -0 1.00245 740 266.029)"/></g></g></g><g clip-path="url(#clip4)"><g clip-path="url(#clip5)"><g clip-path="url(#clip6)"><g clip-path="url(#clip7)"><path d="M193.175 36.7117C193.175 20.3396 206.447 7.06739 222.82 7.06739L341.394 7.06739C357.766 7.06739 371.038 20.3396 371.038 36.7117L371.038 155.286C371.038 171.658 357.766 184.93 341.394 184.93L222.82 184.93C206.447 184.93 193.175 171.658 193.175 155.286Z" stroke="#0D0D0D" stroke-width="4.71159" stroke-miterlimit="8" fill="none" fill-rule="evenodd" transform="matrix(1 0 -0 1.00047 578.597 304.091)"/><path d="M253.837 62.4286 320.388 95.9987 253.837 129.569Z" fill-rule="evenodd" transform="matrix(1 0 -0 1.00047 578.597 304.091)"/></g></g></g></g><g clip-path="url(#clip8)"><g clip-path="url(#clip9)"><g clip-path="url(#clip10)"><g clip-path="url(#clip11)"><path d="M709 286.334C709 258.535 731.535 236 759.334 236L960.666 236C988.465 236 1011 258.535 1011 286.334L1011 487.666C1011 515.465 988.465 538 960.666 538L759.334 538C731.535 538 709 515.465 709 487.666Z" stroke="#0D0D0D" stroke-width="8" stroke-miterlimit="8" fill="none" fill-rule="evenodd"/><path d="M812 330 925 387 812 444Z" fill-rule="evenodd"/></g></g></g></g></g></svg>