<svg width="304" height="286" xmlns="http://www.w3.org/2000/svg" xmlns:xlink="http://www.w3.org/1999/xlink" overflow="hidden"><defs><clipPath id="clip0"><path d="M149-153 453-153 453 133 149 133Z" fill-rule="evenodd" clip-rule="evenodd"/></clipPath></defs><g clip-path="url(#clip0)" transform="translate(-149 153)"><path d="M365.816-71.3158C393.476-34.6968 388.889 15.3905 355.57 40.5572" stroke="#4472C4" stroke-width="8" stroke-miterlimit="8" fill="none" fill-rule="evenodd"/><path d="M381.561-91.3601C421.387-38.6334 414.782 33.4857 366.807 69.7225" stroke="#4472C4" stroke-width="8" stroke-miterlimit="8" fill="none" fill-rule="evenodd"/><path d="M399.677-104.987C447.775-41.3098 439.798 45.7874 381.86 89.5501" stroke="#4472C4" stroke-width="8" stroke-miterlimit="8" fill="none" fill-rule="evenodd"/><path d="M173.036-51.1149C171.889-51.1149 170.958-50.0486 170.958-48.7332L170.958-39.2063C170.958-37.8908 171.889-36.8246 173.036-36.8246L215.421-36.8246C216.569-36.8246 217.499-37.8908 217.499-39.2063L217.499-48.7332C217.499-50.0486 216.569-51.1149 215.421-51.1149ZM174.233-56.1927 222.886-56.1927 222.886 28.8533 221.903 28.1853 174.233 28.1853C167.477 28.1853 162 21.9088 162 14.1663L162-42.1737C162-49.9161 167.477-56.1927 174.233-56.1927ZM302.223-99.5082 242.978-60.4103 243.476-38.4803ZM318.295-118.654 318.295 93.6539 229.535 33.3691 229.535-58.3689ZM335-130 335 105 324.943 98.1696 324.943-123.169Z" fill="#4472C4" fill-rule="evenodd"/></g></svg>