<svg width="312" height="311" xmlns="http://www.w3.org/2000/svg" xmlns:xlink="http://www.w3.org/1999/xlink" overflow="hidden"><defs><clipPath id="clip0"><path d="M1110 273 1422 273 1422 584 1110 584Z" fill-rule="evenodd" clip-rule="evenodd"/></clipPath></defs><g clip-path="url(#clip0)" transform="translate(-1110 -273)"><path d="M1115 327.334C1115 299.535 1137.54 277 1165.33 277L1366.67 277C1394.46 277 1417 299.535 1417 327.334L1417 529.666C1417 557.465 1394.46 580 1366.67 580L1165.33 580C1137.54 580 1115 557.465 1115 529.666Z" stroke="#0D0D0D" stroke-width="8" stroke-miterlimit="8" fill="#7F7F7F" fill-rule="evenodd"/><path d="M1207 413 1235.5 413 1235.5 356 1292.5 356 1292.5 413 1321 413 1264 470Z" fill="#FFFFFF" fill-rule="evenodd"/><path d="M1179.37 442 1199.12 442 1199.12 475.772 1328.88 475.772 1328.88 442 1348.63 442 1349 444.502 1349 491.3C1349 497.762 1345.12 503 1340.33 503L1187.67 503C1182.88 503 1179 497.762 1179 491.3L1179 444.502Z" fill="#FFFFFF" fill-rule="evenodd"/></g></svg>