<svg width="1170" height="90" xmlns="http://www.w3.org/2000/svg" xmlns:xlink="http://www.w3.org/1999/xlink" overflow="hidden"><defs><clipPath id="clip0"><path d="M55 491 1225 491 1225 581 55 581Z" fill-rule="evenodd" clip-rule="evenodd"/></clipPath></defs><g clip-path="url(#clip0)" transform="translate(-55 -491)"><path d="M1219 579 60.9998 579 55 573 55 543 55 543 1225 543 1225 543 1225 573Z" fill="#D9D9D9" fill-rule="evenodd"/><path d="M1210.83 579 69.167 579 55 564.833 55 494 55 494 1225 494 1225 494 1225 564.833Z" fill="#D9D9D9" fill-rule="evenodd"/><path d="M1203.67 579 1198.33 579 1197 577.667 1197 492 1197 492 1205 492 1205 492 1205 577.667Z" fill="#FFFFFF" fill-rule="evenodd"/><path d="M93.5 580 87.5 580 86 578.5 86 493 86 493 95 493 95 493 95 578.5Z" fill="#FFFFFF" fill-rule="evenodd"/><path d="M81.5 580 75.5 580 74 578.5 74 493 74 493 83 493 83 493 83 578.5Z" fill="#FFFFFF" fill-rule="evenodd"/><path d="M1191.67 579 1186.33 579 1185 577.667 1185 492 1185 492 1193 492 1193 492 1193 577.667Z" fill="#FFFFFF" fill-rule="evenodd"/></g></svg>