<svg width="312" height="312" xmlns="http://www.w3.org/2000/svg" xmlns:xlink="http://www.w3.org/1999/xlink" overflow="hidden"><defs><clipPath id="clip0"><path d="M323 355 635 355 635 667 323 667Z" fill-rule="evenodd" clip-rule="evenodd"/></clipPath></defs><g clip-path="url(#clip0)" transform="translate(-323 -355)"><path d="M426 542.75 514.625 542.75 514.625 510.25 506.5 510.25 522.75 494 539 510.25 530.875 510.25 530.875 559 426 559Z" fill-rule="evenodd"/><path d="M523 474 434 474 434 506 442 506 426 522 410 506 418 506 418 458 523 458Z" fill-rule="evenodd"/><path d="M328 410.334C328 382.535 350.535 360 378.334 360L579.666 360C607.465 360 630 382.535 630 410.334L630 611.666C630 639.465 607.465 662 579.666 662L378.334 662C350.535 662 328 639.465 328 611.666Z" stroke="#0D0D0D" stroke-width="8" stroke-miterlimit="8" fill="none" fill-rule="evenodd"/></g></svg>