<svg width="311" height="312" xmlns="http://www.w3.org/2000/svg" xmlns:xlink="http://www.w3.org/1999/xlink" overflow="hidden"><defs><clipPath id="clip0"><path d="M965 355 1276 355 1276 667 965 667Z" fill-rule="evenodd" clip-rule="evenodd"/></clipPath></defs><g clip-path="url(#clip0)" transform="translate(-965 -355)"><path d="M1062 495.5 1090.25 495.5 1090.25 439 1146.75 439 1146.75 495.5 1175 495.5 1118.5 552Z" fill-rule="evenodd"/><path d="M1033.87 525.5 1053.62 525.5 1053.62 559.272 1183.38 559.272 1183.38 525.5 1203.13 525.5 1203.5 528.002 1203.5 574.8C1203.5 581.262 1199.62 586.5 1194.83 586.5L1042.17 586.5C1037.38 586.5 1033.5 581.262 1033.5 574.8L1033.5 528.002Z" stroke="#000000" stroke-miterlimit="8" fill-rule="evenodd"/><path d="M969 410.334C969 382.535 991.535 360 1019.33 360L1220.67 360C1248.46 360 1271 382.535 1271 410.334L1271 611.666C1271 639.465 1248.46 662 1220.67 662L1019.33 662C991.535 662 969 639.465 969 611.666Z" stroke="#0D0D0D" stroke-width="8" stroke-miterlimit="8" fill="none" fill-rule="evenodd"/></g></svg>