<svg width="1170" height="39" xmlns="http://www.w3.org/2000/svg" xmlns:xlink="http://www.w3.org/1999/xlink" overflow="hidden"><defs><clipPath id="clip0"><path d="M55 452 1225 452 1225 491 55 491Z" fill-rule="evenodd" clip-rule="evenodd"/></clipPath></defs><g clip-path="url(#clip0)" transform="translate(-55 -452)"><path d="M61.166 453 1218.83 453 1225 459.166 1225 490 1225 490 55 490 55 490 55 459.166Z" fill="#D9D9D9" fill-rule="evenodd"/><path d="M1203.67 491 1198.33 491 1197 489.667 1197 453 1197 453 1205 453 1205 453 1205 489.667Z" fill="#FFFFFF" fill-rule="evenodd"/><path d="M1191.67 491 1186.33 491 1185 489.667 1185 453 1185 453 1193 453 1193 453 1193 489.667Z" fill="#FFFFFF" fill-rule="evenodd"/><path d="M93.5 491 87.5 491 86 489.5 86 453 86 453 95 453 95 453 95 489.5Z" fill="#FFFFFF" fill-rule="evenodd"/><path d="M81.5 491 75.5 491 74 489.5 74 453 74 453 83 453 83 453 83 489.5Z" fill="#FFFFFF" fill-rule="evenodd"/></g></svg>