<svg width="304" height="304" xmlns="http://www.w3.org/2000/svg" xmlns:xlink="http://www.w3.org/1999/xlink" overflow="hidden"><defs><clipPath id="clip0"><path d="M149 534 453 534 453 838 149 838Z" fill-rule="evenodd" clip-rule="evenodd"/></clipPath></defs><g clip-path="url(#clip0)" transform="translate(-149 -534)"><path d="M172.973 648.892C171.831 648.892 170.906 649.972 170.906 651.304L170.906 660.953C170.906 662.285 171.831 663.365 172.973 663.365L215.112 663.365C216.254 663.365 217.179 662.285 217.179 660.953L217.179 651.304C217.179 649.972 216.254 648.892 215.112 648.892ZM174.162 643.75 222.534 643.75 222.534 729.881 221.556 729.205 174.162 729.205C167.445 729.205 162 722.848 162 715.007L162 657.948C162 650.106 167.445 643.75 174.162 643.75ZM301.413 599.881 242.51 639.478 243.005 661.688ZM317.391 580.491 317.391 795.509 229.144 734.455 229.144 641.546ZM334 569 334 807 324.001 800.082 324.001 575.918Z" fill-rule="evenodd"/></g></svg>