<svg width="304" height="304" xmlns="http://www.w3.org/2000/svg" xmlns:xlink="http://www.w3.org/1999/xlink" overflow="hidden"><defs><clipPath id="clip0"><path d="M149 191 453 191 453 495 149 495Z" fill-rule="evenodd" clip-rule="evenodd"/></clipPath></defs><g clip-path="url(#clip0)" transform="translate(-149 -191)"><path d="M172.592 301.892C171.45 301.892 170.523 302.972 170.523 304.304L170.523 313.953C170.523 315.285 171.45 316.365 172.592 316.365L214.295 316.365C215.44 316.365 216.368 315.285 216.368 313.953L216.368 304.304C216.368 302.972 215.44 301.892 214.295 301.892ZM173.204 296.75 173.784 296.75 221.742 296.75 222.228 296.75 222.228 382.881 221.742 382.545 221.742 382.881 220.761 382.205 173.784 382.205 173.204 382.205C166.464 382.205 161 375.848 161 368.007L161 310.948C161 303.106 166.464 296.75 173.204 296.75ZM397.714 276.455 421 276.455 421 405.545 397.714 405.545ZM351.14 276.455 374.427 276.455 374.427 405.545 351.14 405.545ZM300.309 253.496 242.234 292.478 242.719 314.228ZM316.925 233.491 316.925 233.7 317.227 233.491 317.227 448.509 316.925 448.3 316.925 448.509 228.375 387.455 228.375 294.546ZM333.591 222 333.591 222.187 333.861 222 333.861 460 333.591 459.813 333.591 460 323.558 453.082 323.558 228.918Z" fill="#4472C4" fill-rule="evenodd"/></g></svg>