<svg id="_迹_1" data-name="卵迹_1" xmlns="http://www.w3.org/2000/svg" viewBox="0 0 1200 1200"><defs><style>.cls-1{fill:#fff;}.cls-2{fill:#424242;}</style></defs><title>lock</title><rect class="cls-1" y="50" width="1200" height="1100"/><path class="cls-2" d="M1100,450h0V350c0-165.42-134.58-300-300-300S500,184.58,500,350V450A100,100,0,0,0,400,550v500a100,100,0,0,0,100,100h600a100,100,0,0,0,100-100V550A100,100,0,0,0,1100,450ZM800,150c110.28,0,200,89.72,200,200V450H600V350C600,239.72,689.72,150,800,150Z"/><path class="cls-1" d="M773,941.89H988.37v80.91H681.81V576.07H773Z"/></svg>