<svg id="_迹_1" data-name="卵迹_1" xmlns="http://www.w3.org/2000/svg" viewBox="0 0 1200 1200"><defs><style>.cls-1{fill:#fff;}.cls-2{fill:#424242;}</style></defs><title>unlock</title><rect class="cls-1" x="1.14" y="51.04" width="1197.72" height="1097.91"/><path class="cls-2" d="M500.19,450.28a99.82,99.82,0,0,0-99.81,99.81v499.06A99.81,99.81,0,0,0,500.19,1149h598.86a99.81,99.81,0,0,0,99.81-99.81V550.09a99.81,99.81,0,0,0-99.81-99.81h0m-99.81,0H600"/><path class="cls-2" d="M600,450.28h0V350.47C600,185.37,465.68,51,300.57,51S1.14,185.37,1.14,350.47v99.81M300.57,150.85c110.07,0,199.62,89.55,199.62,199.62v99.81H101V350.47C101,240.4,190.5,150.85,300.57,150.85Z"/><path class="cls-1" d="M975.64,870.27q0,85.31-48.34,128-45.51,40.39-129.67,40.38-38.11,0-71.09-11.37-42.66-13.65-68.25-43.23a133,133,0,0,1-26.16-47.77q-8.53-26.15-8.53-59.72V581.92h93.27V869.7q0,44.35,22.75,67.11,20.48,21.62,56.31,21.61,45.48,0,66.54-22.18,20.47-20.47,20.47-62.56V581.92h92.7Z"/></svg>