<?xml version="1.0" encoding="utf-8"?>
<!-- Generator: Adobe Illustrator 22.1.0, SVG Export Plug-In . SVG Version: 6.00 Build 0)  -->
<svg version="1.1" id="레이어_1" xmlns:sketch="http://www.bohemiancoding.com/sketch/ns"
	 xmlns="http://www.w3.org/2000/svg" xmlns:xlink="http://www.w3.org/1999/xlink" x="0px" y="0px" viewBox="0 0 16 16"
	 style="enable-background:new 0 0 16 16;" xml:space="preserve">
<style type="text/css">
	.st0{fill:#252526;}
</style>
<title></title>
<g id="Icons_with_numbers">
	<g id="Group" transform="translate(-480.000000, -192.000000)">
		<path id="Rectangle_233" class="st0" d="M486,197.8v7.8l0,0c0,0.7-0.5,1.5-1.4,2c-1.4,0.7-2.8,0.4-3.3-0.5
			c-0.5-0.8-0.1-2.1,1.2-2.8c0.9-0.5,1.9-0.5,2.6-0.2V198v-4l10-2v1v3v8.6l0,0c0,0.7-0.5,1.5-1.4,2c-1.4,0.7-2.8,0.4-3.3-0.5
			c-0.5-0.8-0.1-2.1,1.2-2.8c0.9-0.5,1.9-0.5,2.6-0.2v-7L486,197.8z"/>
	</g>
</g>
</svg>
