<svg width="312" height="312" xmlns="http://www.w3.org/2000/svg" xmlns:xlink="http://www.w3.org/1999/xlink" overflow="hidden"><defs><clipPath id="clip0"><path d="M1110-65 1422-65 1422 247 1110 247Z" fill-rule="evenodd" clip-rule="evenodd"/></clipPath></defs><g clip-path="url(#clip0)" transform="translate(-1110 65)"><path d="M1115-9.66568C1115-37.4646 1137.54-60 1165.33-60L1366.67-60C1394.46-60 1417-37.4646 1417-9.66568L1417 191.666C1417 219.465 1394.46 242 1366.67 242L1165.33 242C1137.54 242 1115 219.465 1115 191.666Z" stroke="#0D0D0D" stroke-width="8" stroke-miterlimit="8" fill="#7F7F7F" fill-rule="evenodd"/><path d="M1295.68 63.7667C1291.19 63.7667 1287.54 66.1676 1287.54 69.1293L1287.54 147.443 1287.62 147.443 1287.54 147.694C1287.54 150.656 1291.19 153.056 1295.68 153.056 1300.18 153.056 1303.82 150.656 1303.82 147.694L1303.75 147.443 1303.82 147.443 1303.82 69.1293C1303.82 66.1676 1300.18 63.7667 1295.68 63.7667ZM1265.32 63.7667C1260.83 63.7667 1257.18 66.1676 1257.18 69.1293L1257.18 147.443 1257.26 147.443 1257.18 147.694C1257.18 150.656 1260.83 153.056 1265.32 153.056 1269.82 153.056 1273.46 150.656 1273.46 147.694L1273.38 147.443 1273.46 147.443 1273.46 69.1293C1273.46 66.1676 1269.82 63.7667 1265.32 63.7667ZM1234.96 63.7667C1230.47 63.7667 1226.82 66.1676 1226.82 69.1293L1226.82 147.443 1226.9 147.443 1226.82 147.694C1226.82 150.656 1230.47 153.056 1234.96 153.056 1239.46 153.056 1243.1 150.656 1243.1 147.694L1243.02 147.443 1243.1 147.443 1243.1 69.1293C1243.1 66.1676 1239.46 63.7667 1234.96 63.7667ZM1246.47 27.0175C1241.07 27.0175 1236.7 33.9088 1236.7 42.4097L1236.7 48.2233 1295.3 48.2233 1295.3 42.4097C1295.3 33.9088 1290.93 27.0175 1285.53 27.0175ZM1238.87 16 1293.13 16C1300.62 16 1306.7 22.0998 1306.7 29.6243L1306.7 48.9469 1333.16 48.9469C1334.73 48.9469 1336 50.2222 1336 51.7952L1336 63.1873C1336 64.7603 1334.73 66.0356 1333.16 66.0356L1322.78 66.0356 1322.98 68.0209 1322.98 148.926C1322.98 159.46 1314.47 168 1303.98 168L1228.02 168C1217.53 168 1209.02 159.46 1209.02 148.926L1209.02 68.0209 1209.22 66.0356 1198.84 66.0356C1197.27 66.0356 1196 64.7603 1196 63.1873L1196 51.7952C1196 50.2222 1197.27 48.9469 1198.84 48.9469L1225.3 48.9469 1225.3 29.6243C1225.3 22.0998 1231.38 16 1238.87 16Z" fill="#FFFFFF" fill-rule="evenodd"/></g></svg>