<svg width="312" height="312" xmlns="http://www.w3.org/2000/svg" xmlns:xlink="http://www.w3.org/1999/xlink" overflow="hidden"><defs><clipPath id="clip0"><path d="M644 355 956 355 956 667 644 667Z" fill-rule="evenodd" clip-rule="evenodd"/></clipPath></defs><g clip-path="url(#clip0)" transform="translate(-644 -355)"><path d="M648 410.333C648 382.535 670.535 360 698.333 360L900.667 360C928.465 360 951 382.535 951 410.333L951 611.657C951 639.455 928.465 661.99 900.667 661.99L698.333 661.99C670.535 661.99 648 639.455 648 611.657Z" stroke="#0D0D0D" stroke-width="8" stroke-miterlimit="8" fill="none" fill-rule="evenodd"/><path d="M829.683 484.452C825.188 484.452 821.543 486.838 821.543 489.78L821.543 567.578 821.62 567.578 821.543 567.828C821.543 570.77 825.188 573.155 829.683 573.155 834.178 573.155 837.822 570.77 837.822 567.828L837.745 567.578 837.822 567.578 837.822 489.78C837.822 486.838 834.178 484.452 829.683 484.452ZM799.322 484.452C794.827 484.452 791.183 486.838 791.183 489.78L791.183 567.578 791.26 567.578 791.183 567.828C791.183 570.77 794.827 573.155 799.322 573.155 803.818 573.155 807.462 570.77 807.462 567.828L807.385 567.578 807.462 567.578 807.462 489.78C807.462 486.838 803.818 484.452 799.322 484.452ZM768.962 484.452C764.466 484.452 760.822 486.838 760.822 489.78L760.822 567.578 760.899 567.578 760.822 567.828C760.822 570.77 764.466 573.155 768.962 573.155 773.457 573.155 777.101 570.77 777.101 567.828L777.024 567.578 777.101 567.578 777.101 489.78C777.101 486.838 773.457 484.452 768.962 484.452ZM780.465 447.945C775.071 447.945 770.698 454.791 770.698 463.236L770.698 469.011 829.302 469.011 829.302 463.236C829.302 454.791 824.929 447.945 819.535 447.945ZM772.868 437 827.132 437C834.624 437 840.698 443.06 840.698 450.535L840.698 469.73 867.164 469.73C868.73 469.73 870 470.997 870 472.56L870 483.877C870 485.44 868.73 486.706 867.164 486.706L856.777 486.706 856.977 488.679 856.977 569.052C856.977 579.516 848.473 588 837.984 588L762.016 588C751.527 588 743.023 579.516 743.023 569.052L743.023 488.679 743.223 486.706 732.836 486.706C731.27 486.706 730 485.44 730 483.877L730 472.56C730 470.997 731.27 469.73 732.836 469.73L759.302 469.73 759.302 450.535C759.302 443.06 765.376 437 772.868 437Z" fill-rule="evenodd"/></g></svg>