<svg width="311" height="312" xmlns="http://www.w3.org/2000/svg" xmlns:xlink="http://www.w3.org/1999/xlink" overflow="hidden"><defs><clipPath id="clip0"><path d="M324 687 635 687 635 999 324 999Z" fill-rule="evenodd" clip-rule="evenodd"/></clipPath></defs><g clip-path="url(#clip0)" transform="translate(-324 -687)"><path d="M328 742.334C328 714.535 350.535 692 378.334 692L579.666 692C607.465 692 630 714.535 630 742.334L630 943.666C630 971.465 607.465 994 579.666 994L378.334 994C350.535 994 328 971.465 328 943.666Z" stroke="#0D0D0D" stroke-width="8" stroke-miterlimit="8" fill="#7F7F7F" fill-rule="evenodd"/><path d="M426 874 516 874 516 842 508 842 524 826 540 842 532 842 532 890 426 890Z" fill="#FFFFFF" fill-rule="evenodd"/><path d="M524 806 434 806 434 838 442 838 426 854 410 838 418 838 418 790 524 790Z" fill="#FFFFFF" fill-rule="evenodd"/></g></svg>